<svg width="198" height="39" viewBox="0 0 198 39" fill="none" xmlns="http://www.w3.org/2000/svg">
<path d="M11.392 21.56H7.232V31H3.136V8.6H7.232V17.976H11.52L17.952 8.6H22.368L14.72 19.448L22.656 31H17.952L11.392 21.56ZM25.4693 13.912H29.4693V25.176L38.9093 13.912H42.5573V31H38.5573V19.736L29.1493 31H25.4693V13.912ZM47.938 13.912H51.938V20.856H60.546V13.912H64.546V31H60.546V24.248H51.938V31H47.938V13.912Z" fill="white"/>
<path d="M101.464 31.224C99.6933 31.224 98.104 30.8507 96.696 30.104C95.288 29.3573 94.1893 28.3227 93.4 27C92.6107 25.656 92.216 24.1413 92.216 22.456C92.216 20.7707 92.6107 19.2667 93.4 17.944C94.1893 16.6213 95.2773 15.5867 96.664 14.84C98.072 14.0933 99.672 13.72 101.464 13.72C103.149 13.72 104.621 14.0613 105.88 14.744C107.16 15.4267 108.12 16.408 108.76 17.688L105.688 19.48C105.197 18.6907 104.579 18.104 103.832 17.72C103.107 17.3147 102.307 17.112 101.432 17.112C99.9387 17.112 98.7013 17.6027 97.72 18.584C96.7387 19.544 96.248 20.8347 96.248 22.456C96.248 24.0773 96.728 25.3787 97.688 26.36C98.6693 27.32 99.9173 27.8 101.432 27.8C102.307 27.8 103.107 27.608 103.832 27.224C104.579 26.8187 105.197 26.2213 105.688 25.432L108.76 27.224C108.099 28.504 107.128 29.496 105.848 30.2C104.589 30.8827 103.128 31.224 101.464 31.224ZM134.624 22.424C134.624 25.0693 133.738 27.1493 131.968 28.664C130.218 30.1787 127.712 31.0427 124.448 31.256V37.208H120.672V31.288C117.408 31.0747 114.901 30.2107 113.152 28.696C111.402 27.1813 110.528 25.0907 110.528 22.424C110.528 19.7787 111.402 17.72 113.152 16.248C114.901 14.7547 117.408 13.9013 120.672 13.688V7.256H124.448V13.688C127.712 13.9013 130.218 14.7547 131.968 16.248C133.738 17.7413 134.624 19.8 134.624 22.424ZM114.464 22.424C114.464 24.0667 114.965 25.3467 115.968 26.264C116.992 27.1813 118.56 27.736 120.672 27.928V17.08C118.56 17.2507 116.992 17.784 115.968 18.68C114.965 19.576 114.464 20.824 114.464 22.424ZM124.448 27.928C128.629 27.544 130.72 25.7093 130.72 22.424C130.72 20.8027 130.197 19.5547 129.152 18.68C128.128 17.784 126.56 17.2507 124.448 17.08V27.928ZM154.501 22.552C154.501 22.8293 154.479 23.224 154.437 23.736H141.029C141.263 24.9947 141.871 25.9973 142.853 26.744C143.855 27.4693 145.093 27.832 146.565 27.832C148.442 27.832 149.989 27.2133 151.205 25.976L153.349 28.44C152.581 29.3573 151.61 30.0507 150.437 30.52C149.263 30.9893 147.941 31.224 146.469 31.224C144.591 31.224 142.938 30.8507 141.509 30.104C140.079 29.3573 138.97 28.3227 138.181 27C137.413 25.656 137.029 24.1413 137.029 22.456C137.029 20.792 137.402 19.2987 138.149 17.976C138.917 16.632 139.973 15.5867 141.317 14.84C142.661 14.0933 144.175 13.72 145.861 13.72C147.525 13.72 149.007 14.0933 150.309 14.84C151.631 15.5653 152.655 16.6 153.381 17.944C154.127 19.2667 154.501 20.8027 154.501 22.552ZM145.861 16.92C144.581 16.92 143.493 17.304 142.597 18.072C141.722 18.8187 141.189 19.8213 140.997 21.08H150.693C150.522 19.8427 149.999 18.84 149.125 18.072C148.25 17.304 147.162 16.92 145.861 16.92ZM168.348 13.72C170.012 13.72 171.494 14.0827 172.796 14.808C174.118 15.5333 175.153 16.5573 175.9 17.88C176.646 19.2027 177.02 20.728 177.02 22.456C177.02 24.184 176.646 25.72 175.9 27.064C175.153 28.3867 174.118 29.4107 172.796 30.136C171.494 30.8613 170.012 31.224 168.348 31.224C166.044 31.224 164.22 30.456 162.876 28.92V37.208H158.876V13.912H162.684V16.152C163.345 15.3413 164.156 14.7333 165.116 14.328C166.097 13.9227 167.174 13.72 168.348 13.72ZM167.9 27.8C169.372 27.8 170.577 27.3093 171.516 26.328C172.476 25.3467 172.956 24.056 172.956 22.456C172.956 20.856 172.476 19.5653 171.516 18.584C170.577 17.6027 169.372 17.112 167.9 17.112C166.94 17.112 166.076 17.336 165.308 17.784C164.54 18.2107 163.932 18.8293 163.484 19.64C163.036 20.4507 162.812 21.3893 162.812 22.456C162.812 23.5227 163.036 24.4613 163.484 25.272C163.932 26.0827 164.54 26.712 165.308 27.16C166.076 27.5867 166.94 27.8 167.9 27.8ZM187.15 13.72C189.667 13.72 191.587 14.328 192.91 15.544C194.254 16.7387 194.926 18.552 194.926 20.984V31H191.15V28.92C190.659 29.6667 189.955 30.2427 189.038 30.648C188.142 31.032 187.054 31.224 185.774 31.224C184.494 31.224 183.374 31.0107 182.414 30.584C181.454 30.136 180.707 29.528 180.174 28.76C179.662 27.9707 179.406 27.0853 179.406 26.104C179.406 24.568 179.971 23.3413 181.102 22.424C182.254 21.4853 184.056 21.016 186.51 21.016H190.926V20.76C190.926 19.5653 190.563 18.648 189.838 18.008C189.134 17.368 188.078 17.048 186.67 17.048C185.71 17.048 184.76 17.1973 183.822 17.496C182.904 17.7947 182.126 18.2107 181.486 18.744L179.918 15.832C180.814 15.1493 181.891 14.6267 183.15 14.264C184.408 13.9013 185.742 13.72 187.15 13.72ZM186.606 28.312C187.608 28.312 188.494 28.088 189.262 27.64C190.051 27.1707 190.606 26.5093 190.926 25.656V23.672H186.798C184.494 23.672 183.342 24.4293 183.342 25.944C183.342 26.6693 183.63 27.2453 184.206 27.672C184.782 28.0987 185.582 28.312 186.606 28.312Z" fill="white"/>
<circle cx="79.0137" cy="23.0137" r="11.0137" fill="#C31D41"/>
<ellipse cx="79.0137" cy="16.8892" rx="2.81346" ry="2.79631" fill="#1C1C1A"/>
<ellipse cx="72.8035" cy="21.4182" rx="2.81346" ry="2.79631" fill="#1C1C1A"/>
<ellipse cx="85.2239" cy="21.4182" rx="2.81346" ry="2.79631" fill="#1C1C1A"/>
<ellipse cx="82.6848" cy="28.246" rx="2.81346" ry="2.83062" fill="#1C1C1A"/>
<ellipse cx="75.3082" cy="28.246" rx="2.81346" ry="2.83062" fill="#1C1C1A"/>
<ellipse cx="79.0136" cy="22.9965" rx="1.50966" ry="1.49251" fill="#1C1C1A"/>
</svg>
